<mxfile host="app.diagrams.net" modified="2024-03-10T06:49:43.905Z" agent="Mozilla/5.0 (Macintosh; Intel Mac OS X 10_15_7) AppleWebKit/537.36 (KHTML, like Gecko) Chrome/122.0.0.0 Safari/537.36" etag="f1Xj9eWyBNAHvsfPy6su" version="24.0.4" type="device">
  <diagram name="Page-1" id="-gbkU-IslRF0AyZFm3e2">
    <mxGraphModel dx="2284" dy="795" grid="1" gridSize="10" guides="1" tooltips="1" connect="1" arrows="1" fold="1" page="1" pageScale="1" pageWidth="850" pageHeight="1100" math="0" shadow="0">
      <root>
        <mxCell id="0" />
        <mxCell id="1" parent="0" />
        <mxCell id="M7PCorYKhzzkX3qFVBLz-36" value="" style="rounded=0;whiteSpace=wrap;html=1;fillColor=#ffe6cc;strokeColor=#d79b00;" vertex="1" parent="1">
          <mxGeometry x="-80" y="690" width="1020" height="160" as="geometry" />
        </mxCell>
        <mxCell id="M7PCorYKhzzkX3qFVBLz-31" value="" style="rounded=0;whiteSpace=wrap;html=1;fillColor=#fff2cc;strokeColor=#d6b656;" vertex="1" parent="1">
          <mxGeometry x="-80" y="510" width="1020" height="160" as="geometry" />
        </mxCell>
        <mxCell id="M7PCorYKhzzkX3qFVBLz-28" value="" style="rounded=0;whiteSpace=wrap;html=1;fillColor=#ffe6cc;strokeColor=#d79b00;" vertex="1" parent="1">
          <mxGeometry x="-80" y="330" width="1020" height="160" as="geometry" />
        </mxCell>
        <mxCell id="M7PCorYKhzzkX3qFVBLz-25" value="" style="rounded=0;whiteSpace=wrap;html=1;fillColor=#fff2cc;strokeColor=#d6b656;" vertex="1" parent="1">
          <mxGeometry x="-80" y="150" width="1020" height="160" as="geometry" />
        </mxCell>
        <mxCell id="M7PCorYKhzzkX3qFVBLz-22" value="" style="endArrow=none;html=1;rounded=0;endFill=0;startArrow=classic;startFill=1;flowAnimation=1;flowAnimationDirection=reverse;" edge="1" parent="1">
          <mxGeometry width="50" height="50" relative="1" as="geometry">
            <mxPoint x="180" y="449.5" as="sourcePoint" />
            <mxPoint x="660" y="449.5" as="targetPoint" />
          </mxGeometry>
        </mxCell>
        <mxCell id="M7PCorYKhzzkX3qFVBLz-21" value="" style="endArrow=none;html=1;rounded=0;endFill=0;startArrow=classic;startFill=1;flowAnimation=1;flowAnimationDirection=reverse;" edge="1" parent="1">
          <mxGeometry width="50" height="50" relative="1" as="geometry">
            <mxPoint x="180" y="629.5" as="sourcePoint" />
            <mxPoint x="660" y="629.5" as="targetPoint" />
          </mxGeometry>
        </mxCell>
        <mxCell id="M7PCorYKhzzkX3qFVBLz-20" value="" style="endArrow=none;html=1;rounded=0;endFill=0;startArrow=classic;startFill=1;flowAnimation=1;flowAnimationDirection=reverse;" edge="1" parent="1">
          <mxGeometry width="50" height="50" relative="1" as="geometry">
            <mxPoint x="180" y="809.5" as="sourcePoint" />
            <mxPoint x="660" y="809.5" as="targetPoint" />
          </mxGeometry>
        </mxCell>
        <mxCell id="M7PCorYKhzzkX3qFVBLz-19" value="" style="endArrow=classic;html=1;rounded=0;flowAnimation=1;" edge="1" parent="1">
          <mxGeometry width="50" height="50" relative="1" as="geometry">
            <mxPoint x="180" y="729.5" as="sourcePoint" />
            <mxPoint x="660" y="729.5" as="targetPoint" />
          </mxGeometry>
        </mxCell>
        <mxCell id="M7PCorYKhzzkX3qFVBLz-18" value="" style="endArrow=classic;html=1;rounded=0;flowAnimation=1;" edge="1" parent="1">
          <mxGeometry width="50" height="50" relative="1" as="geometry">
            <mxPoint x="180" y="549" as="sourcePoint" />
            <mxPoint x="660" y="549" as="targetPoint" />
          </mxGeometry>
        </mxCell>
        <mxCell id="M7PCorYKhzzkX3qFVBLz-17" value="" style="endArrow=classic;html=1;rounded=0;flowAnimation=1;" edge="1" parent="1">
          <mxGeometry width="50" height="50" relative="1" as="geometry">
            <mxPoint x="180" y="369.5" as="sourcePoint" />
            <mxPoint x="660" y="369.5" as="targetPoint" />
          </mxGeometry>
        </mxCell>
        <mxCell id="M7PCorYKhzzkX3qFVBLz-11" value="" style="endArrow=none;html=1;rounded=0;endFill=0;startArrow=classic;startFill=1;flowAnimation=1;flowAnimationDirection=reverse;" edge="1" parent="1">
          <mxGeometry width="50" height="50" relative="1" as="geometry">
            <mxPoint x="180" y="269.5" as="sourcePoint" />
            <mxPoint x="660" y="269.5" as="targetPoint" />
          </mxGeometry>
        </mxCell>
        <mxCell id="M7PCorYKhzzkX3qFVBLz-7" value="" style="endArrow=classic;html=1;rounded=0;flowAnimation=1;" edge="1" parent="1">
          <mxGeometry width="50" height="50" relative="1" as="geometry">
            <mxPoint x="180" y="190" as="sourcePoint" />
            <mxPoint x="660" y="190" as="targetPoint" />
          </mxGeometry>
        </mxCell>
        <mxCell id="M7PCorYKhzzkX3qFVBLz-1" value="CLIENT" style="rounded=1;whiteSpace=wrap;html=1;fillColor=#dae8fc;strokeColor=#6c8ebf;fontStyle=1" vertex="1" parent="1">
          <mxGeometry x="120" y="70" width="120" height="60" as="geometry" />
        </mxCell>
        <mxCell id="M7PCorYKhzzkX3qFVBLz-2" value="SERVER" style="rounded=1;whiteSpace=wrap;html=1;fillColor=#d5e8d4;strokeColor=#82b366;fontStyle=1" vertex="1" parent="1">
          <mxGeometry x="600" y="70" width="120" height="60" as="geometry" />
        </mxCell>
        <mxCell id="M7PCorYKhzzkX3qFVBLz-3" value="POST /auth/signin&lt;br&gt;{username, password}" style="rounded=1;whiteSpace=wrap;html=1;fillColor=#dae8fc;strokeColor=#6c8ebf;" vertex="1" parent="1">
          <mxGeometry x="320" y="160" width="200" height="60" as="geometry" />
        </mxCell>
        <mxCell id="M7PCorYKhzzkX3qFVBLz-4" value="" style="endArrow=none;html=1;rounded=0;entryX=0.5;entryY=1;entryDx=0;entryDy=0;" edge="1" parent="1" target="M7PCorYKhzzkX3qFVBLz-1">
          <mxGeometry width="50" height="50" relative="1" as="geometry">
            <mxPoint x="180" y="880" as="sourcePoint" />
            <mxPoint x="450" y="380" as="targetPoint" />
          </mxGeometry>
        </mxCell>
        <mxCell id="M7PCorYKhzzkX3qFVBLz-6" value="" style="endArrow=none;html=1;rounded=0;entryX=0.5;entryY=1;entryDx=0;entryDy=0;" edge="1" parent="1" target="M7PCorYKhzzkX3qFVBLz-2">
          <mxGeometry width="50" height="50" relative="1" as="geometry">
            <mxPoint x="660" y="880" as="sourcePoint" />
            <mxPoint x="659.5" y="140" as="targetPoint" />
          </mxGeometry>
        </mxCell>
        <mxCell id="M7PCorYKhzzkX3qFVBLz-8" value="200 OK&lt;br&gt;{accessToken, refreshToken}" style="rounded=1;whiteSpace=wrap;html=1;fillColor=#d5e8d4;strokeColor=#82b366;" vertex="1" parent="1">
          <mxGeometry x="320" y="240" width="200" height="60" as="geometry" />
        </mxCell>
        <mxCell id="M7PCorYKhzzkX3qFVBLz-9" value="GET /users/:id&lt;br&gt;Authorization: Bearer [accessToken]" style="rounded=1;whiteSpace=wrap;html=1;fillColor=#dae8fc;strokeColor=#6c8ebf;" vertex="1" parent="1">
          <mxGeometry x="320" y="340" width="200" height="60" as="geometry" />
        </mxCell>
        <mxCell id="M7PCorYKhzzkX3qFVBLz-10" value="200 OK" style="rounded=1;whiteSpace=wrap;html=1;fillColor=#d5e8d4;strokeColor=#82b366;" vertex="1" parent="1">
          <mxGeometry x="320" y="420" width="200" height="60" as="geometry" />
        </mxCell>
        <mxCell id="M7PCorYKhzzkX3qFVBLz-12" value="GET /users/:id&lt;br&gt;Authorization: Bearer [accessToken]" style="rounded=1;whiteSpace=wrap;html=1;fillColor=#dae8fc;strokeColor=#6c8ebf;" vertex="1" parent="1">
          <mxGeometry x="320" y="520" width="200" height="60" as="geometry" />
        </mxCell>
        <mxCell id="M7PCorYKhzzkX3qFVBLz-13" value="401 Unauthorized&lt;br&gt;Token Expired" style="rounded=1;whiteSpace=wrap;html=1;fillColor=#d5e8d4;strokeColor=#82b366;" vertex="1" parent="1">
          <mxGeometry x="320" y="600" width="200" height="60" as="geometry" />
        </mxCell>
        <mxCell id="M7PCorYKhzzkX3qFVBLz-14" value="Get /auth/refresh&lt;br&gt;Authorization: Bearer [refreshToken]" style="rounded=1;whiteSpace=wrap;html=1;fillColor=#dae8fc;strokeColor=#6c8ebf;" vertex="1" parent="1">
          <mxGeometry x="325" y="700" width="200" height="60" as="geometry" />
        </mxCell>
        <mxCell id="M7PCorYKhzzkX3qFVBLz-16" value="200 OK&lt;br&gt;{accessToken, refreshToken}" style="rounded=1;whiteSpace=wrap;html=1;fillColor=#d5e8d4;strokeColor=#82b366;" vertex="1" parent="1">
          <mxGeometry x="325" y="780" width="200" height="60" as="geometry" />
        </mxCell>
        <mxCell id="M7PCorYKhzzkX3qFVBLz-23" value="- SignIn an Existing User&lt;br&gt;- Save Tokens to LocalStorage" style="text;html=1;align=left;verticalAlign=middle;whiteSpace=wrap;rounded=0;" vertex="1" parent="1">
          <mxGeometry x="-60" y="190" width="200" height="80" as="geometry" />
        </mxCell>
        <mxCell id="M7PCorYKhzzkX3qFVBLz-24" value="- Verify User Account&lt;br&gt;- Generate New Access and Refresh Tokens" style="text;html=1;align=left;verticalAlign=middle;whiteSpace=wrap;rounded=0;" vertex="1" parent="1">
          <mxGeometry x="700" y="190" width="200" height="80" as="geometry" />
        </mxCell>
        <mxCell id="M7PCorYKhzzkX3qFVBLz-26" value="- Call Protected Route using Access Token" style="text;html=1;align=left;verticalAlign=middle;whiteSpace=wrap;rounded=0;" vertex="1" parent="1">
          <mxGeometry x="-60" y="370" width="200" height="80" as="geometry" />
        </mxCell>
        <mxCell id="M7PCorYKhzzkX3qFVBLz-27" value="- Validate Access Token&lt;br&gt;- If Valid, Send Resource to Client" style="text;html=1;align=left;verticalAlign=middle;whiteSpace=wrap;rounded=0;" vertex="1" parent="1">
          <mxGeometry x="700" y="370" width="200" height="80" as="geometry" />
        </mxCell>
        <mxCell id="M7PCorYKhzzkX3qFVBLz-29" value="- Call Protected Route using Expired Access Token" style="text;html=1;align=left;verticalAlign=middle;whiteSpace=wrap;rounded=0;" vertex="1" parent="1">
          <mxGeometry x="-60" y="550" width="200" height="80" as="geometry" />
        </mxCell>
        <mxCell id="M7PCorYKhzzkX3qFVBLz-30" value="- Validate Access Token&lt;br&gt;- If Invalid, send Unauthorized response to Client" style="text;html=1;align=left;verticalAlign=middle;whiteSpace=wrap;rounded=0;" vertex="1" parent="1">
          <mxGeometry x="700" y="550" width="200" height="80" as="geometry" />
        </mxCell>
        <mxCell id="M7PCorYKhzzkX3qFVBLz-33" value="- Call Protected Route using Access Token" style="text;html=1;align=left;verticalAlign=middle;whiteSpace=wrap;rounded=0;" vertex="1" parent="1">
          <mxGeometry x="-60" y="730" width="200" height="80" as="geometry" />
        </mxCell>
        <mxCell id="M7PCorYKhzzkX3qFVBLz-35" value="- Validate Refresh Token&lt;br&gt;- If Invalid, send Unauthorized response to Client&lt;br&gt;- If Valid, generate new Access and Refresh Tokens" style="text;html=1;align=left;verticalAlign=middle;whiteSpace=wrap;rounded=0;" vertex="1" parent="1">
          <mxGeometry x="700" y="730" width="200" height="80" as="geometry" />
        </mxCell>
      </root>
    </mxGraphModel>
  </diagram>
</mxfile>
